<mxfile host="app.diagrams.net" agent="Mozilla/5.0 (Windows NT 10.0; Win64; x64) AppleWebKit/537.36 (KHTML, like Gecko) Chrome/135.0.0.0 Safari/537.36 Edg/135.0.0.0" version="26.2.14">
  <diagram name="Page-1" id="13e1069c-82ec-6db2-03f1-153e76fe0fe0">
    <mxGraphModel dx="207" dy="445" grid="1" gridSize="10" guides="1" tooltips="1" connect="1" arrows="1" fold="1" page="1" pageScale="1" pageWidth="1100" pageHeight="850" background="none" math="0" shadow="0">
      <root>
        <mxCell id="0" />
        <mxCell id="1" parent="0" />
        <mxCell id="pXl5MxbD4lUHW3FP0IR5-1" value="书架子模块顺序图" style="text;html=1;align=center;verticalAlign=middle;resizable=0;points=[];autosize=1;strokeColor=none;fillColor=none;fontSize=16;" vertex="1" parent="1">
          <mxGeometry x="3525" y="1400" width="150" height="30" as="geometry" />
        </mxCell>
        <mxCell id="pXl5MxbD4lUHW3FP0IR5-2" value="书架模块后端" style="shape=umlLifeline;perimeter=lifelinePerimeter;whiteSpace=wrap;html=1;container=1;collapsible=0;recursiveResize=0;outlineConnect=0;rounded=1;shadow=0;comic=0;labelBackgroundColor=none;strokeWidth=1;fontFamily=Verdana;fontSize=15;align=center;" vertex="1" parent="1">
          <mxGeometry x="3410" y="1470" width="100" height="1220" as="geometry" />
        </mxCell>
        <mxCell id="pXl5MxbD4lUHW3FP0IR5-3" value="" style="html=1;points=[];perimeter=orthogonalPerimeter;rounded=0;shadow=0;comic=0;labelBackgroundColor=none;strokeWidth=1;fontFamily=Verdana;fontSize=15;align=center;" vertex="1" parent="pXl5MxbD4lUHW3FP0IR5-2">
          <mxGeometry x="45" y="100" width="10" height="350" as="geometry" />
        </mxCell>
        <mxCell id="pXl5MxbD4lUHW3FP0IR5-4" value="3. 返回书籍元信息和章节列表" style="html=1;verticalAlign=bottom;endArrow=open;dashed=1;endSize=8;curved=0;rounded=0;fontSize=15;exitX=0.402;exitY=0.973;exitDx=0;exitDy=0;exitPerimeter=0;" edge="1" parent="pXl5MxbD4lUHW3FP0IR5-2" source="pXl5MxbD4lUHW3FP0IR5-6">
          <mxGeometry x="-0.0012" relative="1" as="geometry">
            <mxPoint x="221.5" y="187.13" as="sourcePoint" />
            <mxPoint x="55.00176470588289" y="187.13" as="targetPoint" />
            <mxPoint as="offset" />
          </mxGeometry>
        </mxCell>
        <mxCell id="pXl5MxbD4lUHW3FP0IR5-5" value="数据库" style="shape=umlLifeline;perimeter=lifelinePerimeter;whiteSpace=wrap;html=1;container=1;collapsible=0;recursiveResize=0;outlineConnect=0;rounded=1;shadow=0;comic=0;labelBackgroundColor=none;strokeWidth=1;fontFamily=Verdana;fontSize=15;align=center;" vertex="1" parent="1">
          <mxGeometry x="3675" y="1470" width="100" height="1220" as="geometry" />
        </mxCell>
        <mxCell id="pXl5MxbD4lUHW3FP0IR5-6" value="" style="html=1;points=[];perimeter=orthogonalPerimeter;rounded=0;shadow=0;comic=0;labelBackgroundColor=none;strokeWidth=1;fontFamily=Verdana;fontSize=15;align=center;" vertex="1" parent="pXl5MxbD4lUHW3FP0IR5-5">
          <mxGeometry x="45" y="121.13" width="10" height="68.87" as="geometry" />
        </mxCell>
        <mxCell id="pXl5MxbD4lUHW3FP0IR5-7" value="" style="shape=umlLifeline;perimeter=lifelinePerimeter;whiteSpace=wrap;html=1;container=0;collapsible=0;recursiveResize=0;outlineConnect=0;rounded=1;shadow=0;comic=0;labelBackgroundColor=none;strokeWidth=1;fontFamily=Verdana;fontSize=15;align=center;size=0;" vertex="1" parent="1">
          <mxGeometry x="3190" y="1510" width="100" height="1180" as="geometry" />
        </mxCell>
        <mxCell id="pXl5MxbD4lUHW3FP0IR5-8" value="" style="html=1;verticalAlign=bottom;endArrow=block;entryX=0;entryY=0;labelBackgroundColor=none;fontFamily=Verdana;fontSize=15;edgeStyle=elbowEdgeStyle;elbow=vertical;" edge="1" parent="1" source="pXl5MxbD4lUHW3FP0IR5-10" target="pXl5MxbD4lUHW3FP0IR5-3">
          <mxGeometry relative="1" as="geometry">
            <mxPoint x="3380" y="1580" as="sourcePoint" />
          </mxGeometry>
        </mxCell>
        <mxCell id="pXl5MxbD4lUHW3FP0IR5-9" value="1. 用户在书城点击某本小说" style="edgeLabel;html=1;align=center;verticalAlign=middle;resizable=0;points=[];fontSize=15;" vertex="1" connectable="0" parent="pXl5MxbD4lUHW3FP0IR5-8">
          <mxGeometry x="-0.1333" y="2" relative="1" as="geometry">
            <mxPoint x="17" y="-9" as="offset" />
          </mxGeometry>
        </mxCell>
        <mxCell id="pXl5MxbD4lUHW3FP0IR5-10" value="" style="html=1;points=[];perimeter=orthogonalPerimeter;rounded=0;shadow=0;comic=0;labelBackgroundColor=none;strokeWidth=1;fontFamily=Verdana;fontSize=15;align=center;" vertex="1" parent="1">
          <mxGeometry x="3235" y="1570" width="10" height="360" as="geometry" />
        </mxCell>
        <mxCell id="pXl5MxbD4lUHW3FP0IR5-11" value="用户" style="shape=umlActor;verticalLabelPosition=bottom;verticalAlign=top;html=1;fontSize=15;" vertex="1" parent="1">
          <mxGeometry x="3225" y="1460" width="30" height="60" as="geometry" />
        </mxCell>
        <mxCell id="pXl5MxbD4lUHW3FP0IR5-12" value="2. 获取书籍元信息和章节列表" style="html=1;verticalAlign=bottom;endArrow=block;curved=0;rounded=0;fontSize=15;exitX=0.972;exitY=0.491;exitDx=0;exitDy=0;exitPerimeter=0;entryX=-0.028;entryY=-0.004;entryDx=0;entryDy=0;entryPerimeter=0;" edge="1" parent="1" target="pXl5MxbD4lUHW3FP0IR5-6">
          <mxGeometry x="0.0026" width="80" relative="1" as="geometry">
            <mxPoint x="3466.7199999999993" y="1590.42" as="sourcePoint" />
            <mxPoint x="3611.5" y="1590.1299999999999" as="targetPoint" />
            <mxPoint as="offset" />
          </mxGeometry>
        </mxCell>
        <mxCell id="pXl5MxbD4lUHW3FP0IR5-13" value="系统顺序图" style="shape=umlFrame;whiteSpace=wrap;html=1;pointerEvents=0;width=107;height=30;fontSize=16;" vertex="1" parent="1">
          <mxGeometry x="3140" y="1380" width="870" height="1340" as="geometry" />
        </mxCell>
        <mxCell id="pXl5MxbD4lUHW3FP0IR5-14" value="6. 生成阅读进度处的章节分支图" style="html=1;align=left;spacingLeft=2;endArrow=block;rounded=0;edgeStyle=orthogonalEdgeStyle;curved=0;rounded=0;fontSize=15;" edge="1" parent="1">
          <mxGeometry relative="1" as="geometry">
            <mxPoint x="3466.04" y="1794" as="sourcePoint" />
            <Array as="points">
              <mxPoint x="3496.04" y="1794" />
              <mxPoint x="3496.04" y="1854" />
              <mxPoint x="3466.04" y="1854" />
            </Array>
            <mxPoint x="3466.04" y="1854" as="targetPoint" />
          </mxGeometry>
        </mxCell>
        <mxCell id="pXl5MxbD4lUHW3FP0IR5-15" value="" style="html=1;points=[];perimeter=orthogonalPerimeter;rounded=0;shadow=0;comic=0;labelBackgroundColor=none;strokeWidth=1;fontFamily=Verdana;fontSize=15;align=center;" vertex="1" parent="1">
          <mxGeometry x="3719" y="1694" width="10" height="68.87" as="geometry" />
        </mxCell>
        <mxCell id="pXl5MxbD4lUHW3FP0IR5-16" value="5. 返回用户阅读进度" style="html=1;verticalAlign=bottom;endArrow=open;dashed=1;endSize=8;curved=0;rounded=0;fontSize=15;exitX=0.402;exitY=0.973;exitDx=0;exitDy=0;exitPerimeter=0;" edge="1" parent="1">
          <mxGeometry x="-0.0017" relative="1" as="geometry">
            <mxPoint x="3724" y="1761.58" as="sourcePoint" />
            <mxPoint x="3465.001764705883" y="1760.71" as="targetPoint" />
            <mxPoint as="offset" />
          </mxGeometry>
        </mxCell>
        <mxCell id="pXl5MxbD4lUHW3FP0IR5-17" value="4. 获取用户阅读进度" style="html=1;verticalAlign=bottom;endArrow=block;curved=0;rounded=0;fontSize=15;exitX=0.972;exitY=0.491;exitDx=0;exitDy=0;exitPerimeter=0;entryX=-0.028;entryY=-0.004;entryDx=0;entryDy=0;entryPerimeter=0;" edge="1" parent="1">
          <mxGeometry x="0.0026" width="80" relative="1" as="geometry">
            <mxPoint x="3466.7199999999993" y="1694" as="sourcePoint" />
            <mxPoint x="3720" y="1694.58" as="targetPoint" />
            <mxPoint as="offset" />
          </mxGeometry>
        </mxCell>
        <mxCell id="pXl5MxbD4lUHW3FP0IR5-18" value="7. 返回书籍元信息和章节分支图" style="html=1;verticalAlign=bottom;endArrow=open;dashed=1;endSize=8;curved=0;rounded=0;fontSize=15;exitX=0.14;exitY=0.966;exitDx=0;exitDy=0;exitPerimeter=0;" edge="1" parent="1" source="pXl5MxbD4lUHW3FP0IR5-3">
          <mxGeometry x="-0.0012" relative="1" as="geometry">
            <mxPoint x="3504" y="1908" as="sourcePoint" />
            <mxPoint x="3245.001764705883" y="1907.13" as="targetPoint" />
            <mxPoint as="offset" />
          </mxGeometry>
        </mxCell>
        <mxCell id="pXl5MxbD4lUHW3FP0IR5-19" value="" style="html=1;points=[];perimeter=orthogonalPerimeter;rounded=0;shadow=0;comic=0;labelBackgroundColor=none;strokeWidth=1;fontFamily=Verdana;fontSize=15;align=center;" vertex="1" parent="1">
          <mxGeometry x="3235" y="1960" width="10" height="290" as="geometry" />
        </mxCell>
        <mxCell id="pXl5MxbD4lUHW3FP0IR5-20" value="" style="html=1;points=[];perimeter=orthogonalPerimeter;rounded=0;shadow=0;comic=0;labelBackgroundColor=none;strokeWidth=1;fontFamily=Verdana;fontSize=15;align=center;" vertex="1" parent="1">
          <mxGeometry x="3455" y="2130" width="10" height="110" as="geometry" />
        </mxCell>
        <mxCell id="pXl5MxbD4lUHW3FP0IR5-21" value="" style="html=1;points=[];perimeter=orthogonalPerimeter;rounded=0;shadow=0;comic=0;labelBackgroundColor=none;strokeWidth=1;fontFamily=Verdana;fontSize=15;align=center;" vertex="1" parent="1">
          <mxGeometry x="3719" y="2158.13" width="10" height="48.87" as="geometry" />
        </mxCell>
        <mxCell id="pXl5MxbD4lUHW3FP0IR5-22" value="11. 更新用户书架数据库" style="html=1;verticalAlign=bottom;endArrow=block;curved=0;rounded=0;fontSize=15;exitX=0.972;exitY=0.491;exitDx=0;exitDy=0;exitPerimeter=0;entryX=-0.028;entryY=-0.004;entryDx=0;entryDy=0;entryPerimeter=0;" edge="1" parent="1">
          <mxGeometry x="0.0026" width="80" relative="1" as="geometry">
            <mxPoint x="3463.9999999999995" y="2157" as="sourcePoint" />
            <mxPoint x="3717.28" y="2157.58" as="targetPoint" />
            <mxPoint as="offset" />
          </mxGeometry>
        </mxCell>
        <mxCell id="pXl5MxbD4lUHW3FP0IR5-23" value="" style="html=1;verticalAlign=bottom;endArrow=block;entryX=0.102;entryY=0.02;labelBackgroundColor=none;fontFamily=Verdana;fontSize=15;edgeStyle=elbowEdgeStyle;elbow=vertical;exitX=0.993;exitY=0.052;exitDx=0;exitDy=0;exitPerimeter=0;entryDx=0;entryDy=0;entryPerimeter=0;" edge="1" parent="1">
          <mxGeometry relative="1" as="geometry">
            <mxPoint x="3245" y="2140.5" as="sourcePoint" />
            <mxPoint x="3456" y="2139.5" as="targetPoint" />
          </mxGeometry>
        </mxCell>
        <mxCell id="pXl5MxbD4lUHW3FP0IR5-24" value="10. 用户确认删除" style="edgeLabel;html=1;align=center;verticalAlign=middle;resizable=0;points=[];fontSize=15;" vertex="1" connectable="0" parent="pXl5MxbD4lUHW3FP0IR5-23">
          <mxGeometry x="-0.1333" y="2" relative="1" as="geometry">
            <mxPoint x="15" y="-10" as="offset" />
          </mxGeometry>
        </mxCell>
        <mxCell id="pXl5MxbD4lUHW3FP0IR5-25" value="&lt;span style=&quot;text-align: center;&quot;&gt;9. 用户点击删除某本书籍&lt;/span&gt;" style="html=1;align=left;spacingLeft=2;endArrow=block;rounded=0;edgeStyle=orthogonalEdgeStyle;curved=0;rounded=0;fontSize=15;" edge="1" parent="1">
          <mxGeometry x="-0.0005" relative="1" as="geometry">
            <mxPoint x="3245.0099999999998" y="2060.02" as="sourcePoint" />
            <Array as="points">
              <mxPoint x="3275.0099999999998" y="2060.02" />
              <mxPoint x="3275.0099999999998" y="2120.02" />
              <mxPoint x="3245.0099999999998" y="2120.02" />
            </Array>
            <mxPoint x="3245.0099999999998" y="2120.02" as="targetPoint" />
            <mxPoint as="offset" />
          </mxGeometry>
        </mxCell>
        <mxCell id="pXl5MxbD4lUHW3FP0IR5-26" value="&lt;span style=&quot;text-align: center;&quot;&gt;8. 用户在书架页点击“整理书架”&lt;/span&gt;" style="html=1;align=left;spacingLeft=2;endArrow=block;rounded=0;edgeStyle=orthogonalEdgeStyle;curved=0;rounded=0;fontSize=15;" edge="1" parent="1">
          <mxGeometry x="-0.0005" relative="1" as="geometry">
            <mxPoint x="3244.9999999999995" y="1972" as="sourcePoint" />
            <Array as="points">
              <mxPoint x="3274.9999999999995" y="1972" />
              <mxPoint x="3274.9999999999995" y="2032" />
              <mxPoint x="3244.9999999999995" y="2032" />
            </Array>
            <mxPoint x="3244.9999999999995" y="2032" as="targetPoint" />
            <mxPoint as="offset" />
          </mxGeometry>
        </mxCell>
        <mxCell id="pXl5MxbD4lUHW3FP0IR5-27" value="12. 返回更新结果" style="html=1;verticalAlign=bottom;endArrow=open;dashed=1;endSize=8;curved=0;rounded=0;fontSize=15;exitX=0.402;exitY=0.973;exitDx=0;exitDy=0;exitPerimeter=0;" edge="1" parent="1">
          <mxGeometry x="-0.0041" relative="1" as="geometry">
            <mxPoint x="3724" y="2207.87" as="sourcePoint" />
            <mxPoint x="3465.001764705883" y="2207" as="targetPoint" />
            <mxPoint as="offset" />
          </mxGeometry>
        </mxCell>
        <mxCell id="pXl5MxbD4lUHW3FP0IR5-28" value="13. 返回删除结果" style="html=1;verticalAlign=bottom;endArrow=open;dashed=1;endSize=8;curved=0;rounded=0;fontSize=15;exitX=0.14;exitY=0.966;exitDx=0;exitDy=0;exitPerimeter=0;" edge="1" parent="1">
          <mxGeometry x="0.0002" relative="1" as="geometry">
            <mxPoint x="3456" y="2230.44" as="sourcePoint" />
            <mxPoint x="3245.001764705883" y="2229.5699999999997" as="targetPoint" />
            <mxPoint as="offset" />
          </mxGeometry>
        </mxCell>
        <mxCell id="pXl5MxbD4lUHW3FP0IR5-29" value="opt" style="shape=umlFrame;whiteSpace=wrap;html=1;pointerEvents=0;width=55;height=20;fontSize=15;" vertex="1" parent="1">
          <mxGeometry x="3175" y="1940" width="815" height="320" as="geometry" />
        </mxCell>
        <mxCell id="pXl5MxbD4lUHW3FP0IR5-30" value="" style="html=1;points=[];perimeter=orthogonalPerimeter;rounded=0;shadow=0;comic=0;labelBackgroundColor=none;strokeWidth=1;fontFamily=Verdana;fontSize=15;align=center;" vertex="1" parent="1">
          <mxGeometry x="3235" y="2310" width="10" height="370" as="geometry" />
        </mxCell>
        <mxCell id="pXl5MxbD4lUHW3FP0IR5-31" value="" style="html=1;points=[];perimeter=orthogonalPerimeter;rounded=0;shadow=0;comic=0;labelBackgroundColor=none;strokeWidth=1;fontFamily=Verdana;fontSize=15;align=center;" vertex="1" parent="1">
          <mxGeometry x="3455" y="2322" width="10" height="348" as="geometry" />
        </mxCell>
        <mxCell id="pXl5MxbD4lUHW3FP0IR5-32" value="" style="html=1;points=[];perimeter=orthogonalPerimeter;rounded=0;shadow=0;comic=0;labelBackgroundColor=none;strokeWidth=1;fontFamily=Verdana;fontSize=15;align=center;" vertex="1" parent="1">
          <mxGeometry x="3719" y="2451.13" width="10" height="48.87" as="geometry" />
        </mxCell>
        <mxCell id="pXl5MxbD4lUHW3FP0IR5-33" value="16. 存储各章节数据" style="html=1;verticalAlign=bottom;endArrow=block;curved=0;rounded=0;fontSize=15;exitX=0.972;exitY=0.491;exitDx=0;exitDy=0;exitPerimeter=0;entryX=-0.028;entryY=-0.004;entryDx=0;entryDy=0;entryPerimeter=0;" edge="1" parent="1">
          <mxGeometry x="0.0026" width="80" relative="1" as="geometry">
            <mxPoint x="3463.9999999999995" y="2450" as="sourcePoint" />
            <mxPoint x="3717.28" y="2450.58" as="targetPoint" />
            <mxPoint as="offset" />
          </mxGeometry>
        </mxCell>
        <mxCell id="pXl5MxbD4lUHW3FP0IR5-34" value="" style="html=1;verticalAlign=bottom;endArrow=block;entryX=0.102;entryY=0.02;labelBackgroundColor=none;fontFamily=Verdana;fontSize=15;edgeStyle=elbowEdgeStyle;elbow=vertical;exitX=0.993;exitY=0.052;exitDx=0;exitDy=0;exitPerimeter=0;entryDx=0;entryDy=0;entryPerimeter=0;" edge="1" parent="1">
          <mxGeometry relative="1" as="geometry">
            <mxPoint x="3245" y="2332.5" as="sourcePoint" />
            <mxPoint x="3456" y="2331.5" as="targetPoint" />
          </mxGeometry>
        </mxCell>
        <mxCell id="pXl5MxbD4lUHW3FP0IR5-35" value="14. 用户上传本地书籍" style="edgeLabel;html=1;align=center;verticalAlign=middle;resizable=0;points=[];fontSize=15;" vertex="1" connectable="0" parent="pXl5MxbD4lUHW3FP0IR5-34">
          <mxGeometry x="-0.1333" y="2" relative="1" as="geometry">
            <mxPoint x="15" y="-10" as="offset" />
          </mxGeometry>
        </mxCell>
        <mxCell id="pXl5MxbD4lUHW3FP0IR5-36" value="17. 返回存储结果" style="html=1;verticalAlign=bottom;endArrow=open;dashed=1;endSize=8;curved=0;rounded=0;fontSize=15;exitX=0.402;exitY=0.973;exitDx=0;exitDy=0;exitPerimeter=0;" edge="1" parent="1">
          <mxGeometry x="-0.0017" relative="1" as="geometry">
            <mxPoint x="3724" y="2500.87" as="sourcePoint" />
            <mxPoint x="3465.001764705883" y="2500" as="targetPoint" />
            <mxPoint as="offset" />
          </mxGeometry>
        </mxCell>
        <mxCell id="pXl5MxbD4lUHW3FP0IR5-37" value="20. 返回发布结果" style="html=1;verticalAlign=bottom;endArrow=open;dashed=1;endSize=8;curved=0;rounded=0;fontSize=15;exitX=0.14;exitY=0.966;exitDx=0;exitDy=0;exitPerimeter=0;" edge="1" parent="1">
          <mxGeometry x="-0.0012" relative="1" as="geometry">
            <mxPoint x="3456" y="2643.44" as="sourcePoint" />
            <mxPoint x="3245.001764705883" y="2642.5699999999997" as="targetPoint" />
            <mxPoint as="offset" />
          </mxGeometry>
        </mxCell>
        <mxCell id="pXl5MxbD4lUHW3FP0IR5-38" value="审核模块&lt;div&gt;中间件&lt;/div&gt;" style="shape=umlLifeline;perimeter=lifelinePerimeter;whiteSpace=wrap;html=1;container=1;collapsible=0;recursiveResize=0;outlineConnect=0;rounded=1;shadow=0;comic=0;labelBackgroundColor=none;strokeWidth=1;fontFamily=Verdana;fontSize=15;align=center;" vertex="1" parent="1">
          <mxGeometry x="3850" y="1470" width="100" height="1220" as="geometry" />
        </mxCell>
        <mxCell id="pXl5MxbD4lUHW3FP0IR5-39" value="" style="html=1;points=[[0,0,0,0,5],[0,1,0,0,-5],[1,0,0,0,5],[1,1,0,0,-5]];perimeter=orthogonalPerimeter;outlineConnect=0;targetShapes=umlLifeline;portConstraint=eastwest;newEdgeStyle={&quot;curved&quot;:0,&quot;rounded&quot;:0};" vertex="1" parent="pXl5MxbD4lUHW3FP0IR5-38">
          <mxGeometry x="45" y="1070" width="10" height="60" as="geometry" />
        </mxCell>
        <mxCell id="pXl5MxbD4lUHW3FP0IR5-40" value="&lt;div style=&quot;text-align: center;&quot;&gt;&lt;span style=&quot;background-color: light-dark(#ffffff, var(--ge-dark-color, #121212)); color: light-dark(rgb(0, 0, 0), rgb(255, 255, 255));&quot;&gt;15. 解析小说文件，逐章发布&lt;/span&gt;&lt;/div&gt;" style="html=1;align=left;spacingLeft=2;endArrow=block;rounded=0;edgeStyle=orthogonalEdgeStyle;curved=0;rounded=0;fontSize=15;" edge="1" parent="1">
          <mxGeometry x="-0.0005" relative="1" as="geometry">
            <mxPoint x="3464.9999999999995" y="2347" as="sourcePoint" />
            <Array as="points">
              <mxPoint x="3494.9999999999995" y="2347" />
              <mxPoint x="3494.9999999999995" y="2407" />
              <mxPoint x="3464.9999999999995" y="2407" />
            </Array>
            <mxPoint x="3464.9999999999995" y="2407" as="targetPoint" />
            <mxPoint as="offset" />
          </mxGeometry>
        </mxCell>
        <mxCell id="pXl5MxbD4lUHW3FP0IR5-41" value="" style="endArrow=open;endFill=1;endSize=12;html=1;rounded=0;" edge="1" parent="1" target="pXl5MxbD4lUHW3FP0IR5-39">
          <mxGeometry width="160" relative="1" as="geometry">
            <mxPoint x="3465" y="2549.66" as="sourcePoint" />
            <mxPoint x="3760" y="2550" as="targetPoint" />
          </mxGeometry>
        </mxCell>
        <mxCell id="pXl5MxbD4lUHW3FP0IR5-42" value="18. 推送到审核中间件，待审核模块处理" style="edgeLabel;html=1;align=center;verticalAlign=middle;resizable=0;points=[];fontSize=15;" vertex="1" connectable="0" parent="pXl5MxbD4lUHW3FP0IR5-41">
          <mxGeometry x="-0.2788" relative="1" as="geometry">
            <mxPoint x="47" y="-12" as="offset" />
          </mxGeometry>
        </mxCell>
        <mxCell id="pXl5MxbD4lUHW3FP0IR5-43" value="19. 返回推送结果" style="html=1;verticalAlign=bottom;endArrow=open;dashed=1;endSize=8;curved=0;rounded=0;fontSize=15;" edge="1" parent="1" source="pXl5MxbD4lUHW3FP0IR5-39">
          <mxGeometry x="-0.0017" relative="1" as="geometry">
            <mxPoint x="3724" y="2593.87" as="sourcePoint" />
            <mxPoint x="3465.001764705883" y="2593" as="targetPoint" />
            <mxPoint as="offset" />
          </mxGeometry>
        </mxCell>
        <mxCell id="pXl5MxbD4lUHW3FP0IR5-44" value="opt" style="shape=umlFrame;whiteSpace=wrap;html=1;pointerEvents=0;width=55;height=20;fontSize=15;" vertex="1" parent="1">
          <mxGeometry x="3175" y="2284" width="815" height="416" as="geometry" />
        </mxCell>
      </root>
    </mxGraphModel>
  </diagram>
</mxfile>
